<svg xmlns="http://www.w3.org/2000/svg" width="87" height="38" viewBox="0 0 87 38"><defs><linearGradient id="kdk6a" x1="43" x2="44" y1="0" y2="38" gradientUnits="userSpaceOnUse"><stop offset="0" stop-color="#f9f9f9"/><stop offset="1" stop-color="#f5f5f5"/></linearGradient><clipPath id="kdk6b"><path fill="#fff" d="M3 0h84v38H3a3 3 0 0 1-3-3V3a3 3 0 0 1 3-3z"/></clipPath></defs><g><g><path fill="#cdcdcc" d="M3 0h84v38H3a3 3 0 0 1-3-3V3a3 3 0 0 1 3-3z"/><path fill="url(#kdk6a)" d="M3 0h84v38H3a3 3 0 0 1-3-3V3a3 3 0 0 1 3-3z"/><path fill="none" stroke="#e6e6e6" stroke-linecap="round" stroke-linejoin="round" stroke-miterlimit="50" stroke-width="2" d="M3 0h84v38H3a3 3 0 0 1-3-3V3a3 3 0 0 1 3-3z" clip-path="url(&quot;#kdk6b&quot;)"/></g><g><g><text dominant-baseline="text-before-edge" style="line-height:32px" fill="#838383" font-family="'FontAwesome','FontAwesome'" font-size="14" font-style="none" font-weight="400" transform="translate(69 16)"><tspan style="font-kerning:normal" letter-spacing=".35"></tspan></text></g></g></g></svg>